<?xml version="1.0" encoding="UTF-8"?>
<svg xmlns="http://www.w3.org/2000/svg" xmlns:xlink="http://www.w3.org/1999/xlink" width="1200px" height="1200px" viewBox="0 0 1200 1200" version="1.1">
<g id="surface1">
<path style="fill:none;stroke-width:1.5;stroke-linecap:round;stroke-linejoin:round;stroke:rgb(100%,100%,100%);stroke-opacity:1;stroke-miterlimit:4;" d="M 9 12.08 L 11 14 L 15 10 " transform="matrix(50,0,0,50,0,0)"/>
<path style="fill:none;stroke-width:1.5;stroke-linecap:round;stroke-linejoin:miter;stroke:rgb(100%,100%,100%);stroke-opacity:1;stroke-miterlimit:4;" d="M 17 3.337813 C 15.529063 2.486953 13.821406 2 12 2 C 6.477188 2 2 6.477188 2 12 C 2 13.599687 2.375625 15.111562 3.043438 16.4525 C 3.220938 16.808828 3.28 17.216094 3.177109 17.600625 L 2.581484 19.826719 C 2.322969 20.792969 3.207031 21.677031 4.173359 21.418516 L 6.399375 20.822891 C 6.783906 20.72 7.191172 20.779063 7.5475 20.956484 C 8.888359 21.624375 10.400313 22 12 22 C 17.522813 22 22 17.522813 22 12 C 22 10.178594 21.512969 8.470859 20.662188 7 " transform="matrix(50,0,0,50,0,0)"/>
</g>
</svg>
